<?xml version="1.0" encoding="UTF-8" standalone="no"?>
<!DOCTYPE svg PUBLIC "-//W3C//DTD SVG 1.1//EN"
 "http://www.w3.org/Graphics/SVG/1.1/DTD/svg11.dtd">
<!-- Generated by graphviz version 2.40.1 (20161225.0304)
 -->
<!-- Title: dependencies Pages: 1 -->
<svg width="850pt" height="284pt"
 viewBox="0.00 0.00 850.00 284.00" xmlns="http://www.w3.org/2000/svg" xmlns:xlink="http://www.w3.org/1999/xlink">
<g id="graph0" class="graph" transform="scale(1 1) rotate(0) translate(4 280)">
<title>dependencies</title>
<polygon fill="#ffffff" stroke="transparent" points="-4,4 -4,-280 846,-280 846,4 -4,4"/>
<text text-anchor="start" x="400.0091" y="-42.4" font-family="sans-serif" font-weight="bold" font-size="14.00" fill="#000000">Legend</text>
<polygon fill="#ffffb3" stroke="transparent" points="187,-10 187,-30 207,-30 207,-10 187,-10"/>
<text text-anchor="start" x="210.629" y="-15.4" font-family="sans-serif" font-size="14.00" fill="#000000"> &#160;Declarations</text>
<polygon fill="#8dd3c7" stroke="transparent" points="300,-10 300,-30 320,-30 320,-10 300,-10"/>
<text text-anchor="start" x="323.7251" y="-15.4" font-family="sans-serif" font-size="14.00" fill="#000000"> &#160;Module</text>
<polygon fill="#80b1d3" stroke="transparent" points="386,-10 386,-30 406,-30 406,-10 386,-10"/>
<text text-anchor="start" x="409.7812" y="-15.4" font-family="sans-serif" font-size="14.00" fill="#000000"> &#160;Bootstrap</text>
<polygon fill="#fdb462" stroke="transparent" points="483,-10 483,-30 503,-30 503,-10 483,-10"/>
<text text-anchor="start" x="506.6732" y="-15.4" font-family="sans-serif" font-size="14.00" fill="#000000"> &#160;Providers</text>
<polygon fill="#fb8072" stroke="transparent" points="579,-10 579,-30 599,-30 599,-10 579,-10"/>
<text text-anchor="start" x="602.7258" y="-15.4" font-family="sans-serif" font-size="14.00" fill="#000000"> &#160;Exports</text>
<g id="clust1" class="cluster">
<title>cluster_AppModule</title>
<polygon fill="none" stroke="#000000" stroke-dasharray="1,5" points="8,-70 8,-268 834,-268 834,-70 8,-70"/>
</g>
<g id="clust2" class="cluster">
<title>cluster_AppModule_declarations</title>
<polygon fill="none" stroke="#000000" points="704,-78 704,-130 826,-130 826,-78 704,-78"/>
</g>
<g id="clust4" class="cluster">
<title>cluster_AppModule_imports</title>
<polygon fill="none" stroke="#000000" points="16,-78 16,-130 696,-130 696,-78 16,-78"/>
</g>
<g id="clust6" class="cluster">
<title>cluster_AppModule_bootstrap</title>
<polygon fill="none" stroke="#000000" points="349,-208 349,-260 473,-260 473,-208 349,-208"/>
</g>
<!-- AppComponent -->
<g id="node1" class="node">
<title>AppComponent</title>
<polygon fill="#ffffb3" stroke="#000000" points="817.9399,-122 712.0601,-122 712.0601,-86 817.9399,-86 817.9399,-122"/>
<text text-anchor="middle" x="765" y="-99.8" font-family="Times,serif" font-size="14.00" fill="#000000">AppComponent</text>
</g>
<!-- AppModule -->
<g id="node2" class="node">
<title>AppModule</title>
<polygon fill="#8dd3c7" stroke="#000000" points="452.6571,-187 449.6571,-191 428.6571,-191 425.6571,-187 369.3429,-187 369.3429,-151 452.6571,-151 452.6571,-187"/>
<text text-anchor="middle" x="411" y="-164.8" font-family="Times,serif" font-size="14.00" fill="#000000">AppModule</text>
</g>
<!-- AppComponent&#45;&gt;AppModule -->
<g id="edge1" class="edge">
<title>AppComponent&#45;&gt;AppModule</title>
<path fill="none" stroke="#000000" d="M765,-122.2843C765,-143.3211 765,-175 765,-175 765,-175 462.9986,-175 462.9986,-175"/>
<polygon fill="#000000" stroke="#000000" points="462.9986,-171.5001 452.9986,-175 462.9985,-178.5001 462.9986,-171.5001"/>
</g>
<!-- AppComponent  -->
<g id="node8" class="node">
<title>AppComponent </title>
<polygon fill="#80b1d3" stroke="#000000" points="465.439,-252 356.561,-252 356.561,-216 465.439,-216 465.439,-252"/>
<text text-anchor="middle" x="411" y="-229.8" font-family="Times,serif" font-size="14.00" fill="#000000">AppComponent </text>
</g>
<!-- AppModule&#45;&gt;AppComponent  -->
<g id="edge7" class="edge">
<title>AppModule&#45;&gt;AppComponent </title>
<path fill="none" stroke="#000000" stroke-dasharray="1,5" d="M411,-187.1061C411,-187.1061 411,-205.991 411,-205.991"/>
<polygon fill="#000000" stroke="#000000" points="407.5001,-205.9909 411,-215.991 414.5001,-205.991 407.5001,-205.9909"/>
</g>
<!-- AppRoutingModule -->
<g id="node3" class="node">
<title>AppRoutingModule</title>
<polygon fill="#8dd3c7" stroke="#000000" points="688.2744,-122 685.2744,-126 664.2744,-126 661.2744,-122 559.7256,-122 559.7256,-86 688.2744,-86 688.2744,-122"/>
<text text-anchor="middle" x="624" y="-99.8" font-family="Times,serif" font-size="14.00" fill="#000000">AppRoutingModule</text>
</g>
<!-- AppRoutingModule&#45;&gt;AppModule -->
<g id="edge2" class="edge">
<title>AppRoutingModule&#45;&gt;AppModule</title>
<path fill="none" stroke="#000000" d="M624,-122.0225C624,-139.3734 624,-163 624,-163 624,-163 462.8278,-163 462.8278,-163"/>
<polygon fill="#000000" stroke="#000000" points="462.8278,-159.5001 452.8278,-163 462.8278,-166.5001 462.8278,-159.5001"/>
</g>
<!-- BootstrapModule -->
<g id="node4" class="node">
<title>BootstrapModule</title>
<polygon fill="#8dd3c7" stroke="#000000" points="541.9874,-122 538.9874,-126 517.9874,-126 514.9874,-122 428.0126,-122 428.0126,-86 541.9874,-86 541.9874,-122"/>
<text text-anchor="middle" x="485" y="-99.8" font-family="Times,serif" font-size="14.00" fill="#000000">BootstrapModule</text>
</g>
<!-- BootstrapModule&#45;&gt;AppModule -->
<g id="edge3" class="edge">
<title>BootstrapModule&#45;&gt;AppModule</title>
<path fill="none" stroke="#000000" d="M440.4173,-122.1061C440.4173,-122.1061 440.4173,-140.991 440.4173,-140.991"/>
<polygon fill="#000000" stroke="#000000" points="436.9173,-140.9909 440.4173,-150.991 443.9173,-140.991 436.9173,-140.9909"/>
</g>
<!-- EstablishmentsModule -->
<g id="node5" class="node">
<title>EstablishmentsModule</title>
<polygon fill="#8dd3c7" stroke="#000000" points="410.3188,-122 407.3188,-126 386.3188,-126 383.3188,-122 265.6812,-122 265.6812,-86 410.3188,-86 410.3188,-122"/>
<text text-anchor="middle" x="338" y="-99.8" font-family="Times,serif" font-size="14.00" fill="#000000">EstablishmentsModule</text>
</g>
<!-- EstablishmentsModule&#45;&gt;AppModule -->
<g id="edge4" class="edge">
<title>EstablishmentsModule&#45;&gt;AppModule</title>
<path fill="none" stroke="#000000" d="M389.6655,-122.1061C389.6655,-122.1061 389.6655,-140.991 389.6655,-140.991"/>
<polygon fill="#000000" stroke="#000000" points="386.1656,-140.9909 389.6655,-150.991 393.1656,-140.991 386.1656,-140.9909"/>
</g>
<!-- HeaderModule -->
<g id="node6" class="node">
<title>HeaderModule</title>
<polygon fill="#8dd3c7" stroke="#000000" points="247.9608,-122 244.9608,-126 223.9608,-126 220.9608,-122 148.0392,-122 148.0392,-86 247.9608,-86 247.9608,-122"/>
<text text-anchor="middle" x="198" y="-99.8" font-family="Times,serif" font-size="14.00" fill="#000000">HeaderModule</text>
</g>
<!-- HeaderModule&#45;&gt;AppModule -->
<g id="edge5" class="edge">
<title>HeaderModule&#45;&gt;AppModule</title>
<path fill="none" stroke="#000000" d="M198,-122.0225C198,-139.3734 198,-163 198,-163 198,-163 359.1722,-163 359.1722,-163"/>
<polygon fill="#000000" stroke="#000000" points="359.1722,-166.5001 369.1722,-163 359.1722,-159.5001 359.1722,-166.5001"/>
</g>
<!-- MaterialModule -->
<g id="node7" class="node">
<title>MaterialModule</title>
<polygon fill="#8dd3c7" stroke="#000000" points="130.4706,-122 127.4706,-126 106.4706,-126 103.4706,-122 23.5294,-122 23.5294,-86 130.4706,-86 130.4706,-122"/>
<text text-anchor="middle" x="77" y="-99.8" font-family="Times,serif" font-size="14.00" fill="#000000">MaterialModule</text>
</g>
<!-- MaterialModule&#45;&gt;AppModule -->
<g id="edge6" class="edge">
<title>MaterialModule&#45;&gt;AppModule</title>
<path fill="none" stroke="#000000" d="M77,-122.2843C77,-143.3211 77,-175 77,-175 77,-175 359.0369,-175 359.0369,-175"/>
<polygon fill="#000000" stroke="#000000" points="359.0369,-178.5001 369.0369,-175 359.0368,-171.5001 359.0369,-178.5001"/>
</g>
</g>
</svg>
