<?xml version="1.0" encoding="UTF-8" standalone="no"?>
<!DOCTYPE svg PUBLIC "-//W3C//DTD SVG 1.1//EN"
 "http://www.w3.org/Graphics/SVG/1.1/DTD/svg11.dtd">
<!-- Generated by graphviz version 2.40.1 (20161225.0304)
 -->
<!-- Title: dependencies Pages: 1 -->
<svg width="1767pt" height="442pt"
 viewBox="0.00 0.00 1767.00 442.00" xmlns="http://www.w3.org/2000/svg" xmlns:xlink="http://www.w3.org/1999/xlink">
<g id="graph0" class="graph" transform="scale(1 1) rotate(0) translate(4 438)">
<title>dependencies</title>
<polygon fill="#ffffff" stroke="transparent" points="-4,4 -4,-438 1763,-438 1763,4 -4,4"/>
<text text-anchor="start" x="858.5091" y="-42.4" font-family="sans-serif" font-weight="bold" font-size="14.00" fill="#000000">Legend</text>
<polygon fill="#ffffb3" stroke="transparent" points="645.5,-10 645.5,-30 665.5,-30 665.5,-10 645.5,-10"/>
<text text-anchor="start" x="669.129" y="-15.4" font-family="sans-serif" font-size="14.00" fill="#000000"> &#160;Declarations</text>
<polygon fill="#8dd3c7" stroke="transparent" points="758.5,-10 758.5,-30 778.5,-30 778.5,-10 758.5,-10"/>
<text text-anchor="start" x="782.2251" y="-15.4" font-family="sans-serif" font-size="14.00" fill="#000000"> &#160;Module</text>
<polygon fill="#80b1d3" stroke="transparent" points="844.5,-10 844.5,-30 864.5,-30 864.5,-10 844.5,-10"/>
<text text-anchor="start" x="868.2812" y="-15.4" font-family="sans-serif" font-size="14.00" fill="#000000"> &#160;Bootstrap</text>
<polygon fill="#fdb462" stroke="transparent" points="941.5,-10 941.5,-30 961.5,-30 961.5,-10 941.5,-10"/>
<text text-anchor="start" x="965.1732" y="-15.4" font-family="sans-serif" font-size="14.00" fill="#000000"> &#160;Providers</text>
<polygon fill="#fb8072" stroke="transparent" points="1037.5,-10 1037.5,-30 1057.5,-30 1057.5,-10 1037.5,-10"/>
<text text-anchor="start" x="1061.2258" y="-15.4" font-family="sans-serif" font-size="14.00" fill="#000000"> &#160;Exports</text>
<g id="clust1" class="cluster">
<title>cluster_AppModule</title>
<polygon fill="none" stroke="#000000" stroke-dasharray="1,5" points="1040,-138 1040,-426 1599,-426 1599,-138 1040,-138"/>
</g>
<g id="clust2" class="cluster">
<title>cluster_AppModule_declarations</title>
<polygon fill="none" stroke="#000000" points="1457,-222 1457,-274 1579,-274 1579,-222 1457,-222"/>
</g>
<g id="clust4" class="cluster">
<title>cluster_AppModule_imports</title>
<polygon fill="none" stroke="#000000" points="1048,-146 1048,-274 1449,-274 1449,-146 1048,-146"/>
</g>
<g id="clust6" class="cluster">
<title>cluster_AppModule_bootstrap</title>
<polygon fill="none" stroke="#000000" points="1297,-366 1297,-418 1421,-418 1421,-366 1297,-366"/>
</g>
<g id="clust20" class="cluster">
<title>cluster_CardModule</title>
<polygon fill="none" stroke="#000000" stroke-dasharray="1,5" points="1607,-70 1607,-282 1751,-282 1751,-70 1607,-70"/>
</g>
<g id="clust21" class="cluster">
<title>cluster_CardModule_declarations</title>
<polygon fill="none" stroke="#000000" points="1615,-78 1615,-130 1739,-130 1739,-78 1615,-78"/>
</g>
<g id="clust24" class="cluster">
<title>cluster_CardModule_exports</title>
<polygon fill="none" stroke="#000000" points="1615,-222 1615,-274 1743,-274 1743,-222 1615,-222"/>
</g>
<g id="clust27" class="cluster">
<title>cluster_DetailsModule</title>
<polygon fill="none" stroke="#000000" stroke-dasharray="1,5" points="8,-138 8,-358 322,-358 322,-138 8,-138"/>
</g>
<g id="clust28" class="cluster">
<title>cluster_DetailsModule_declarations</title>
<polygon fill="none" stroke="#000000" points="178,-146 178,-198 314,-198 314,-146 178,-146"/>
</g>
<g id="clust30" class="cluster">
<title>cluster_DetailsModule_imports</title>
<polygon fill="none" stroke="#000000" points="16,-146 16,-198 170,-198 170,-146 16,-146"/>
</g>
<g id="clust31" class="cluster">
<title>cluster_DetailsModule_exports</title>
<polygon fill="none" stroke="#000000" points="174,-298 174,-350 314,-350 314,-298 174,-298"/>
</g>
<g id="clust46" class="cluster">
<title>cluster_EstablishmentsModule</title>
<polygon fill="none" stroke="#000000" stroke-dasharray="1,5" points="330,-138 330,-206 1032,-206 1032,-138 330,-138"/>
</g>
<g id="clust47" class="cluster">
<title>cluster_EstablishmentsModule_declarations</title>
<polygon fill="none" stroke="#000000" points="648,-146 648,-198 830,-198 830,-146 648,-146"/>
</g>
<g id="clust49" class="cluster">
<title>cluster_EstablishmentsModule_imports</title>
<polygon fill="none" stroke="#000000" points="338,-146 338,-198 640,-198 640,-146 338,-146"/>
</g>
<g id="clust50" class="cluster">
<title>cluster_EstablishmentsModule_exports</title>
<polygon fill="none" stroke="#000000" points="838,-146 838,-198 1024,-198 1024,-146 838,-146"/>
</g>
<g id="clust53" class="cluster">
<title>cluster_HeaderModule</title>
<polygon fill="none" stroke="#000000" stroke-dasharray="1,5" points="728,-290 728,-358 1032,-358 1032,-290 728,-290"/>
</g>
<g id="clust54" class="cluster">
<title>cluster_HeaderModule_declarations</title>
<polygon fill="none" stroke="#000000" points="886,-298 886,-350 1024,-350 1024,-298 886,-298"/>
</g>
<g id="clust57" class="cluster">
<title>cluster_HeaderModule_exports</title>
<polygon fill="none" stroke="#000000" points="736,-298 736,-350 878,-350 878,-298 736,-298"/>
</g>
<g id="clust60" class="cluster">
<title>cluster_ListModule</title>
<polygon fill="none" stroke="#000000" stroke-dasharray="1,5" points="330,-214 330,-282 596,-282 596,-214 330,-214"/>
</g>
<g id="clust61" class="cluster">
<title>cluster_ListModule_declarations</title>
<polygon fill="none" stroke="#000000" points="468,-222 468,-274 588,-274 588,-222 468,-222"/>
</g>
<g id="clust64" class="cluster">
<title>cluster_ListModule_exports</title>
<polygon fill="none" stroke="#000000" points="338,-222 338,-274 460,-274 460,-222 338,-222"/>
</g>
<!-- AppComponent -->
<g id="node1" class="node">
<title>AppComponent</title>
<polygon fill="#ffffb3" stroke="#000000" points="1570.9399,-266 1465.0601,-266 1465.0601,-230 1570.9399,-230 1570.9399,-266"/>
<text text-anchor="middle" x="1518" y="-243.8" font-family="Times,serif" font-size="14.00" fill="#000000">AppComponent</text>
</g>
<!-- AppModule -->
<g id="node2" class="node">
<title>AppModule</title>
<polygon fill="#8dd3c7" stroke="#000000" points="1400.6571,-342 1397.6571,-346 1376.6571,-346 1373.6571,-342 1317.3429,-342 1317.3429,-306 1400.6571,-306 1400.6571,-342"/>
<text text-anchor="middle" x="1359" y="-319.8" font-family="Times,serif" font-size="14.00" fill="#000000">AppModule</text>
</g>
<!-- AppComponent&#45;&gt;AppModule -->
<g id="edge1" class="edge">
<title>AppComponent&#45;&gt;AppModule</title>
<path fill="none" stroke="#000000" d="M1465.0849,-248C1426.2009,-248 1380.1163,-248 1380.1163,-248 1380.1163,-248 1380.1163,-295.9891 1380.1163,-295.9891"/>
<polygon fill="#000000" stroke="#000000" points="1376.6163,-295.989 1380.1163,-305.9891 1383.6163,-295.9891 1376.6163,-295.989"/>
</g>
<!-- AppComponent  -->
<g id="node8" class="node">
<title>AppComponent </title>
<polygon fill="#80b1d3" stroke="#000000" points="1413.439,-410 1304.561,-410 1304.561,-374 1413.439,-374 1413.439,-410"/>
<text text-anchor="middle" x="1359" y="-387.8" font-family="Times,serif" font-size="14.00" fill="#000000">AppComponent </text>
</g>
<!-- AppModule&#45;&gt;AppComponent  -->
<g id="edge7" class="edge">
<title>AppModule&#45;&gt;AppComponent </title>
<path fill="none" stroke="#000000" stroke-dasharray="1,5" d="M1359,-342.2228C1359,-342.2228 1359,-363.7269 1359,-363.7269"/>
<polygon fill="#000000" stroke="#000000" points="1355.5001,-363.7269 1359,-373.7269 1362.5001,-363.727 1355.5001,-363.7269"/>
</g>
<!-- AppRoutingModule -->
<g id="node3" class="node">
<title>AppRoutingModule</title>
<polygon fill="#8dd3c7" stroke="#000000" points="1441.2744,-190 1438.2744,-194 1417.2744,-194 1414.2744,-190 1312.7256,-190 1312.7256,-154 1441.2744,-154 1441.2744,-190"/>
<text text-anchor="middle" x="1377" y="-167.8" font-family="Times,serif" font-size="14.00" fill="#000000">AppRoutingModule</text>
</g>
<!-- AppRoutingModule&#45;&gt;AppModule -->
<g id="edge2" class="edge">
<title>AppRoutingModule&#45;&gt;AppModule</title>
<path fill="none" stroke="#000000" d="M1359.4043,-190.0333C1359.4043,-190.0333 1359.4043,-295.9902 1359.4043,-295.9902"/>
<polygon fill="#000000" stroke="#000000" points="1355.9044,-295.9901 1359.4043,-305.9902 1362.9044,-295.9902 1355.9044,-295.9901"/>
</g>
<!-- BootstrapModule -->
<g id="node4" class="node">
<title>BootstrapModule</title>
<polygon fill="#8dd3c7" stroke="#000000" points="1169.9874,-190 1166.9874,-194 1145.9874,-194 1142.9874,-190 1056.0126,-190 1056.0126,-154 1169.9874,-154 1169.9874,-190"/>
<text text-anchor="middle" x="1113" y="-167.8" font-family="Times,serif" font-size="14.00" fill="#000000">BootstrapModule</text>
</g>
<!-- BootstrapModule&#45;&gt;AppModule -->
<g id="edge3" class="edge">
<title>BootstrapModule&#45;&gt;AppModule</title>
<path fill="none" stroke="#000000" d="M1153.7098,-190.1223C1153.7098,-192.9729 1153.7098,-195 1153.7098,-195 1153.7098,-195 1338.6924,-195 1338.6924,-195 1338.6924,-195 1338.6924,-295.7911 1338.6924,-295.7911"/>
<polygon fill="#000000" stroke="#000000" points="1335.1924,-295.791 1338.6924,-305.7911 1342.1924,-295.7911 1335.1924,-295.791"/>
</g>
<!-- EstablishmentsModule -->
<g id="node5" class="node">
<title>EstablishmentsModule</title>
<polygon fill="#8dd3c7" stroke="#000000" points="1200.3188,-266 1197.3188,-270 1176.3188,-270 1173.3188,-266 1055.6812,-266 1055.6812,-230 1200.3188,-230 1200.3188,-266"/>
<text text-anchor="middle" x="1128" y="-243.8" font-family="Times,serif" font-size="14.00" fill="#000000">EstablishmentsModule</text>
</g>
<!-- BootstrapModule&#45;&gt;EstablishmentsModule -->
<g id="edge17" class="edge">
<title>BootstrapModule&#45;&gt;EstablishmentsModule</title>
<path fill="none" stroke="#000000" d="M1121.142,-190.0109C1121.142,-190.0109 1121.142,-219.855 1121.142,-219.855"/>
<polygon fill="#000000" stroke="#000000" points="1117.6421,-219.8549 1121.142,-229.855 1124.6421,-219.855 1117.6421,-219.8549"/>
</g>
<!-- HeaderModule -->
<g id="node6" class="node">
<title>HeaderModule</title>
<polygon fill="#8dd3c7" stroke="#000000" points="1317.9608,-266 1314.9608,-270 1293.9608,-270 1290.9608,-266 1218.0392,-266 1218.0392,-230 1317.9608,-230 1317.9608,-266"/>
<text text-anchor="middle" x="1268" y="-243.8" font-family="Times,serif" font-size="14.00" fill="#000000">HeaderModule</text>
</g>
<!-- BootstrapModule&#45;&gt;HeaderModule -->
<g id="edge24" class="edge">
<title>BootstrapModule&#45;&gt;HeaderModule</title>
<path fill="none" stroke="#000000" d="M1137.4259,-190.1592C1137.4259,-195.0433 1137.4259,-199 1137.4259,-199 1137.4259,-199 1256.2525,-199 1256.2525,-199 1256.2525,-199 1256.2525,-219.7542 1256.2525,-219.7542"/>
<polygon fill="#000000" stroke="#000000" points="1252.7525,-219.7542 1256.2525,-229.7542 1259.7525,-219.7542 1252.7525,-219.7542"/>
</g>
<!-- CardModule -->
<g id="node10" class="node">
<title>CardModule</title>
<polygon fill="#8dd3c7" stroke="#000000" points="1701.2619,-190 1698.2619,-194 1677.2619,-194 1674.2619,-190 1614.7381,-190 1614.7381,-154 1701.2619,-154 1701.2619,-190"/>
<text text-anchor="middle" x="1658" y="-167.8" font-family="Times,serif" font-size="14.00" fill="#000000">CardModule</text>
</g>
<!-- BootstrapModule&#45;&gt;CardModule -->
<g id="edge9" class="edge">
<title>BootstrapModule&#45;&gt;CardModule</title>
<path fill="none" stroke="#000000" d="M1113,-153.793C1113,-148.4451 1113,-144 1113,-144 1113,-144 1620.025,-144 1620.025,-144 1620.025,-144 1620.025,-144.9793 1620.025,-144.9793"/>
<polygon fill="#000000" stroke="#000000" points="1616.5251,-143.793 1620.025,-153.793 1623.5251,-143.7931 1616.5251,-143.793"/>
</g>
<!-- DetailsModule -->
<g id="node13" class="node">
<title>DetailsModule</title>
<polygon fill="#8dd3c7" stroke="#000000" points="304.7022,-266 301.7022,-270 280.7022,-270 277.7022,-266 205.2978,-266 205.2978,-230 304.7022,-230 304.7022,-266"/>
<text text-anchor="middle" x="255" y="-243.8" font-family="Times,serif" font-size="14.00" fill="#000000">DetailsModule</text>
</g>
<!-- BootstrapModule&#45;&gt;DetailsModule -->
<g id="edge12" class="edge">
<title>BootstrapModule&#45;&gt;DetailsModule</title>
<path fill="none" stroke="#000000" d="M1088.5741,-190.4218C1088.5741,-199.2791 1088.5741,-208 1088.5741,-208 1088.5741,-208 264.9202,-208 264.9202,-208 264.9202,-208 264.9202,-219.8726 264.9202,-219.8726"/>
<polygon fill="#000000" stroke="#000000" points="261.4203,-219.8725 264.9202,-229.8726 268.4203,-219.8726 261.4203,-219.8725"/>
</g>
<!-- EstablishmentsModule&#45;&gt;AppModule -->
<g id="edge4" class="edge">
<title>EstablishmentsModule&#45;&gt;AppModule</title>
<path fill="none" stroke="#000000" d="M1128,-266.1532C1128,-289.7566 1128,-328 1128,-328 1128,-328 1307.1676,-328 1307.1676,-328"/>
<polygon fill="#000000" stroke="#000000" points="1307.1677,-331.5001 1317.1676,-328 1307.1676,-324.5001 1307.1677,-331.5001"/>
</g>
<!-- EstablishmentsComponent  -->
<g id="node19" class="node">
<title>EstablishmentsComponent </title>
<polygon fill="#fb8072" stroke="#000000" points="1015.6015,-190 846.3985,-190 846.3985,-154 1015.6015,-154 1015.6015,-190"/>
<text text-anchor="middle" x="931" y="-167.8" font-family="Times,serif" font-size="14.00" fill="#000000">EstablishmentsComponent </text>
</g>
<!-- EstablishmentsModule&#45;&gt;EstablishmentsComponent  -->
<g id="edge22" class="edge">
<title>EstablishmentsModule&#45;&gt;EstablishmentsComponent </title>
<path fill="none" stroke="#000000" stroke-dasharray="5,2" d="M1055.6199,-239C1008.2037,-239 954.9644,-239 954.9644,-239 954.9644,-239 954.9644,-200.308 954.9644,-200.308"/>
<polygon fill="#000000" stroke="#000000" points="958.4645,-200.308 954.9644,-190.308 951.4645,-200.3081 958.4645,-200.308"/>
</g>
<!-- HeaderModule&#45;&gt;AppModule -->
<g id="edge5" class="edge">
<title>HeaderModule&#45;&gt;AppModule</title>
<path fill="none" stroke="#000000" d="M1310.8512,-266.0265C1310.8512,-291.5093 1310.8512,-335 1310.8512,-335 1310.8512,-335 1311.4806,-335 1311.4806,-335"/>
<polygon fill="#000000" stroke="#000000" points="1307.1458,-338.5002 1317.1458,-335 1307.1457,-331.5002 1307.1458,-338.5002"/>
</g>
<!-- HeaderComponent  -->
<g id="node21" class="node">
<title>HeaderComponent </title>
<polygon fill="#fb8072" stroke="#000000" points="869.7436,-342 744.2564,-342 744.2564,-306 869.7436,-306 869.7436,-342"/>
<text text-anchor="middle" x="807" y="-319.8" font-family="Times,serif" font-size="14.00" fill="#000000">HeaderComponent </text>
</g>
<!-- HeaderModule&#45;&gt;HeaderComponent  -->
<g id="edge25" class="edge">
<title>HeaderModule&#45;&gt;HeaderComponent </title>
<path fill="none" stroke="#000000" stroke-dasharray="5,2" d="M1246.8566,-266.1097C1246.8566,-275.897 1246.8566,-286 1246.8566,-286 1246.8566,-286 857.9106,-286 857.9106,-286 857.9106,-286 857.9106,-295.8903 857.9106,-295.8903"/>
<polygon fill="#000000" stroke="#000000" points="854.4107,-295.8903 857.9106,-305.8903 861.4107,-295.8904 854.4107,-295.8903"/>
</g>
<!-- MaterialModule -->
<g id="node7" class="node">
<title>MaterialModule</title>
<polygon fill="#8dd3c7" stroke="#000000" points="1294.4706,-190 1291.4706,-194 1270.4706,-194 1267.4706,-190 1187.5294,-190 1187.5294,-154 1294.4706,-154 1294.4706,-190"/>
<text text-anchor="middle" x="1241" y="-167.8" font-family="Times,serif" font-size="14.00" fill="#000000">MaterialModule</text>
</g>
<!-- MaterialModule&#45;&gt;AppModule -->
<g id="edge6" class="edge">
<title>MaterialModule&#45;&gt;AppModule</title>
<path fill="none" stroke="#000000" d="M1209.0894,-190.2703C1209.0894,-230.0576 1209.0894,-321 1209.0894,-321 1209.0894,-321 1307.2415,-321 1307.2415,-321"/>
<polygon fill="#000000" stroke="#000000" points="1307.2416,-324.5001 1317.2415,-321 1307.2415,-317.5001 1307.2416,-324.5001"/>
</g>
<!-- MaterialModule&#45;&gt;DetailsModule -->
<g id="edge14" class="edge">
<title>MaterialModule&#45;&gt;DetailsModule</title>
<path fill="none" stroke="#000000" d="M1191.7295,-190.1025C1191.7295,-201.0859 1191.7295,-213 1191.7295,-213 1191.7295,-213 284.7606,-213 284.7606,-213 284.7606,-213 284.7606,-219.68 284.7606,-219.68"/>
<polygon fill="#000000" stroke="#000000" points="281.2607,-219.6799 284.7606,-229.68 288.2607,-219.68 281.2607,-219.6799"/>
</g>
<!-- CardComponent -->
<g id="node9" class="node">
<title>CardComponent</title>
<polygon fill="#ffffb3" stroke="#000000" points="1731.0452,-122 1622.9548,-122 1622.9548,-86 1731.0452,-86 1731.0452,-122"/>
<text text-anchor="middle" x="1677" y="-99.8" font-family="Times,serif" font-size="14.00" fill="#000000">CardComponent</text>
</g>
<!-- CardComponent&#45;&gt;CardModule -->
<g id="edge8" class="edge">
<title>CardComponent&#45;&gt;CardModule</title>
<path fill="none" stroke="#000000" d="M1662.0543,-122.2228C1662.0543,-122.2228 1662.0543,-143.7269 1662.0543,-143.7269"/>
<polygon fill="#000000" stroke="#000000" points="1658.5544,-143.7269 1662.0543,-153.7269 1665.5544,-143.727 1658.5544,-143.7269"/>
</g>
<!-- CardModule&#45;&gt;EstablishmentsModule -->
<g id="edge18" class="edge">
<title>CardModule&#45;&gt;EstablishmentsModule</title>
<path fill="none" stroke="#000000" d="M1618.7986,-190.0439C1618.7986,-202.5633 1618.7986,-217 1618.7986,-217 1618.7986,-217 1195.9444,-217 1195.9444,-217 1195.9444,-217 1195.9444,-219.9672 1195.9444,-219.9672"/>
<polygon fill="#000000" stroke="#000000" points="1192.4445,-219.9671 1195.9444,-229.9672 1199.4445,-219.9672 1192.4445,-219.9671"/>
</g>
<!-- CardComponent  -->
<g id="node11" class="node">
<title>CardComponent </title>
<polygon fill="#fb8072" stroke="#000000" points="1735.0442,-266 1622.9558,-266 1622.9558,-230 1735.0442,-230 1735.0442,-266"/>
<text text-anchor="middle" x="1679" y="-243.8" font-family="Times,serif" font-size="14.00" fill="#000000">CardComponent </text>
</g>
<!-- CardModule&#45;&gt;CardComponent  -->
<g id="edge10" class="edge">
<title>CardModule&#45;&gt;CardComponent </title>
<path fill="none" stroke="#000000" stroke-dasharray="5,2" d="M1662.1793,-190.0109C1662.1793,-190.0109 1662.1793,-219.855 1662.1793,-219.855"/>
<polygon fill="#000000" stroke="#000000" points="1658.6794,-219.8549 1662.1793,-229.855 1665.6794,-219.855 1658.6794,-219.8549"/>
</g>
<!-- ListModule -->
<g id="node18" class="node">
<title>ListModule</title>
<polygon fill="#8dd3c7" stroke="#000000" points="427.8289,-190 424.8289,-194 403.8289,-194 400.8289,-190 346.1711,-190 346.1711,-154 427.8289,-154 427.8289,-190"/>
<text text-anchor="middle" x="387" y="-167.8" font-family="Times,serif" font-size="14.00" fill="#000000">ListModule</text>
</g>
<!-- CardModule&#45;&gt;ListModule -->
<g id="edge27" class="edge">
<title>CardModule&#45;&gt;ListModule</title>
<path fill="none" stroke="#000000" d="M1617.3221,-153.8701C1617.3221,-143.6855 1617.3221,-133 1617.3221,-133 1617.3221,-133 387,-133 387,-133 387,-133 387,-143.8701 387,-143.8701"/>
<polygon fill="#000000" stroke="#000000" points="383.5001,-143.8701 387,-153.8701 390.5001,-143.8701 383.5001,-143.8701"/>
</g>
<!-- DetailsComponent -->
<g id="node12" class="node">
<title>DetailsComponent</title>
<polygon fill="#ffffb3" stroke="#000000" points="306.4846,-190 185.5154,-190 185.5154,-154 306.4846,-154 306.4846,-190"/>
<text text-anchor="middle" x="246" y="-167.8" font-family="Times,serif" font-size="14.00" fill="#000000">DetailsComponent</text>
</g>
<!-- DetailsComponent&#45;&gt;DetailsModule -->
<g id="edge11" class="edge">
<title>DetailsComponent&#45;&gt;DetailsModule</title>
<path fill="none" stroke="#000000" d="M225.2394,-190.0109C225.2394,-190.0109 225.2394,-219.855 225.2394,-219.855"/>
<polygon fill="#000000" stroke="#000000" points="221.7395,-219.8549 225.2394,-229.855 228.7395,-219.855 221.7395,-219.8549"/>
</g>
<!-- DetailsModule&#45;&gt;EstablishmentsModule -->
<g id="edge19" class="edge">
<title>DetailsModule&#45;&gt;EstablishmentsModule</title>
<path fill="none" stroke="#000000" d="M245.0798,-229.9421C245.0798,-225.5055 245.0798,-222 245.0798,-222 245.0798,-222 1072.2902,-222 1072.2902,-222 1072.2902,-222 1072.2902,-222.7942 1072.2902,-222.7942"/>
<polygon fill="#000000" stroke="#000000" points="1068.7904,-219.9421 1072.2902,-229.9421 1075.7904,-219.9422 1068.7904,-219.9421"/>
</g>
<!-- DetailsComponent  -->
<g id="node15" class="node">
<title>DetailsComponent </title>
<polygon fill="#fb8072" stroke="#000000" points="306.4855,-342 181.5145,-342 181.5145,-306 306.4855,-306 306.4855,-342"/>
<text text-anchor="middle" x="244" y="-319.8" font-family="Times,serif" font-size="14.00" fill="#000000">DetailsComponent </text>
</g>
<!-- DetailsModule&#45;&gt;DetailsComponent  -->
<g id="edge15" class="edge">
<title>DetailsModule&#45;&gt;DetailsComponent </title>
<path fill="none" stroke="#000000" stroke-dasharray="5,2" d="M255,-266.0109C255,-266.0109 255,-295.855 255,-295.855"/>
<polygon fill="#000000" stroke="#000000" points="251.5001,-295.8549 255,-305.855 258.5001,-295.855 251.5001,-295.8549"/>
</g>
<!-- DetailsRouterModule -->
<g id="node14" class="node">
<title>DetailsRouterModule</title>
<polygon fill="#8dd3c7" stroke="#000000" points="161.8047,-190 158.8047,-194 137.8047,-194 134.8047,-190 24.1953,-190 24.1953,-154 161.8047,-154 161.8047,-190"/>
<text text-anchor="middle" x="93" y="-167.8" font-family="Times,serif" font-size="14.00" fill="#000000">DetailsRouterModule</text>
</g>
<!-- DetailsRouterModule&#45;&gt;DetailsModule -->
<g id="edge13" class="edge">
<title>DetailsRouterModule&#45;&gt;DetailsModule</title>
<path fill="none" stroke="#000000" d="M93,-190.0109C93,-212.4852 93,-248 93,-248 93,-248 195.0728,-248 195.0728,-248"/>
<polygon fill="#000000" stroke="#000000" points="195.0728,-251.5001 205.0728,-248 195.0728,-244.5001 195.0728,-251.5001"/>
</g>
<!-- EstablishmentsComponent -->
<g id="node16" class="node">
<title>EstablishmentsComponent</title>
<polygon fill="#ffffb3" stroke="#000000" points="822.101,-190 655.899,-190 655.899,-154 822.101,-154 822.101,-190"/>
<text text-anchor="middle" x="739" y="-167.8" font-family="Times,serif" font-size="14.00" fill="#000000">EstablishmentsComponent</text>
</g>
<!-- EstablishmentsComponent&#45;&gt;EstablishmentsModule -->
<g id="edge16" class="edge">
<title>EstablishmentsComponent&#45;&gt;EstablishmentsModule</title>
<path fill="none" stroke="#000000" d="M783.2144,-190.0109C783.2144,-212.4852 783.2144,-248 783.2144,-248 783.2144,-248 1045.7216,-248 1045.7216,-248"/>
<polygon fill="#000000" stroke="#000000" points="1045.7217,-251.5001 1055.7216,-248 1045.7216,-244.5001 1045.7217,-251.5001"/>
</g>
<!-- EstablishimentsRouterModule -->
<g id="node17" class="node">
<title>EstablishimentsRouterModule</title>
<polygon fill="#8dd3c7" stroke="#000000" points="632.3117,-190 629.3117,-194 608.3117,-194 605.3117,-190 445.6883,-190 445.6883,-154 632.3117,-154 632.3117,-190"/>
<text text-anchor="middle" x="539" y="-167.8" font-family="Times,serif" font-size="14.00" fill="#000000">EstablishimentsRouterModule</text>
</g>
<!-- EstablishimentsRouterModule&#45;&gt;EstablishmentsModule -->
<g id="edge20" class="edge">
<title>EstablishimentsRouterModule&#45;&gt;EstablishmentsModule</title>
<path fill="none" stroke="#000000" d="M605.8556,-190.0263C605.8556,-214.9773 605.8556,-257 605.8556,-257 605.8556,-257 1045.6724,-257 1045.6724,-257"/>
<polygon fill="#000000" stroke="#000000" points="1045.6724,-260.5001 1055.6724,-257 1045.6723,-253.5001 1045.6724,-260.5001"/>
</g>
<!-- ListModule&#45;&gt;EstablishmentsModule -->
<g id="edge21" class="edge">
<title>ListModule&#45;&gt;EstablishmentsModule</title>
<path fill="none" stroke="#000000" d="M387,-190.2434C387,-197.4297 387,-204 387,-204 387,-204 1104.858,-204 1104.858,-204 1104.858,-204 1104.858,-219.8495 1104.858,-219.8495"/>
<polygon fill="#000000" stroke="#000000" points="1101.3581,-219.8494 1104.858,-229.8495 1108.3581,-219.8495 1101.3581,-219.8494"/>
</g>
<!-- ListComponent  -->
<g id="node23" class="node">
<title>ListComponent </title>
<polygon fill="#fb8072" stroke="#000000" points="452.1115,-266 345.8885,-266 345.8885,-230 452.1115,-230 452.1115,-266"/>
<text text-anchor="middle" x="399" y="-243.8" font-family="Times,serif" font-size="14.00" fill="#000000">ListComponent </text>
</g>
<!-- ListModule&#45;&gt;ListComponent  -->
<g id="edge28" class="edge">
<title>ListModule&#45;&gt;ListComponent </title>
<path fill="none" stroke="#000000" stroke-dasharray="5,2" d="M366.668,-190.0109C366.668,-190.0109 366.668,-219.855 366.668,-219.855"/>
<polygon fill="#000000" stroke="#000000" points="363.168,-219.8549 366.668,-229.855 370.168,-219.855 363.168,-219.8549"/>
</g>
<!-- HeaderComponent -->
<g id="node20" class="node">
<title>HeaderComponent</title>
<polygon fill="#ffffb3" stroke="#000000" points="1015.7437,-342 894.2563,-342 894.2563,-306 1015.7437,-306 1015.7437,-342"/>
<text text-anchor="middle" x="955" y="-319.8" font-family="Times,serif" font-size="14.00" fill="#000000">HeaderComponent</text>
</g>
<!-- HeaderComponent&#45;&gt;HeaderModule -->
<g id="edge23" class="edge">
<title>HeaderComponent&#45;&gt;HeaderModule</title>
<path fill="none" stroke="#000000" d="M1016.0748,-314C1109.1211,-314 1275.6935,-314 1275.6935,-314 1275.6935,-314 1275.6935,-276.0348 1275.6935,-276.0348"/>
<polygon fill="#000000" stroke="#000000" points="1279.1936,-276.0348 1275.6935,-266.0348 1272.1936,-276.0348 1279.1936,-276.0348"/>
</g>
<!-- ListComponent -->
<g id="node22" class="node">
<title>ListComponent</title>
<polygon fill="#ffffb3" stroke="#000000" points="579.6109,-266 476.3891,-266 476.3891,-230 579.6109,-230 579.6109,-266"/>
<text text-anchor="middle" x="528" y="-243.8" font-family="Times,serif" font-size="14.00" fill="#000000">ListComponent</text>
</g>
<!-- ListComponent&#45;&gt;ListModule -->
<g id="edge26" class="edge">
<title>ListComponent&#45;&gt;ListModule</title>
<path fill="none" stroke="#000000" d="M528,-229.8321C528,-227.5522 528,-226 528,-226 528,-226 407.3321,-226 407.3321,-226 407.3321,-226 407.3321,-200.2819 407.3321,-200.2819"/>
<polygon fill="#000000" stroke="#000000" points="410.8321,-200.2819 407.3321,-190.2819 403.8321,-200.282 410.8321,-200.2819"/>
</g>
</g>
</svg>
