<?xml version="1.0" encoding="UTF-8" standalone="no"?>
<!DOCTYPE svg PUBLIC "-//W3C//DTD SVG 1.1//EN"
 "http://www.w3.org/Graphics/SVG/1.1/DTD/svg11.dtd">
<!-- Generated by graphviz version 2.40.1 (20161225.0304)
 -->
<!-- Title: dependencies Pages: 1 -->
<svg width="754pt" height="284pt"
 viewBox="0.00 0.00 754.00 284.00" xmlns="http://www.w3.org/2000/svg" xmlns:xlink="http://www.w3.org/1999/xlink">
<g id="graph0" class="graph" transform="scale(1 1) rotate(0) translate(4 280)">
<title>dependencies</title>
<polygon fill="#ffffff" stroke="transparent" points="-4,4 -4,-280 750,-280 750,4 -4,4"/>
<text text-anchor="start" x="352.0091" y="-42.4" font-family="sans-serif" font-weight="bold" font-size="14.00" fill="#000000">Legend</text>
<polygon fill="#ffffb3" stroke="transparent" points="139,-10 139,-30 159,-30 159,-10 139,-10"/>
<text text-anchor="start" x="162.629" y="-15.4" font-family="sans-serif" font-size="14.00" fill="#000000"> &#160;Declarations</text>
<polygon fill="#8dd3c7" stroke="transparent" points="252,-10 252,-30 272,-30 272,-10 252,-10"/>
<text text-anchor="start" x="275.7251" y="-15.4" font-family="sans-serif" font-size="14.00" fill="#000000"> &#160;Module</text>
<polygon fill="#80b1d3" stroke="transparent" points="338,-10 338,-30 358,-30 358,-10 338,-10"/>
<text text-anchor="start" x="361.7812" y="-15.4" font-family="sans-serif" font-size="14.00" fill="#000000"> &#160;Bootstrap</text>
<polygon fill="#fdb462" stroke="transparent" points="435,-10 435,-30 455,-30 455,-10 435,-10"/>
<text text-anchor="start" x="458.6732" y="-15.4" font-family="sans-serif" font-size="14.00" fill="#000000"> &#160;Providers</text>
<polygon fill="#fb8072" stroke="transparent" points="531,-10 531,-30 551,-30 551,-10 531,-10"/>
<text text-anchor="start" x="554.7258" y="-15.4" font-family="sans-serif" font-size="14.00" fill="#000000"> &#160;Exports</text>
<g id="clust1" class="cluster">
<title>cluster_EstablishmentsModule</title>
<polygon fill="none" stroke="#000000" stroke-dasharray="1,5" points="8,-70 8,-268 738,-268 738,-70 8,-70"/>
</g>
<g id="clust2" class="cluster">
<title>cluster_EstablishmentsModule_declarations</title>
<polygon fill="none" stroke="#000000" points="548,-78 548,-130 730,-130 730,-78 548,-78"/>
</g>
<g id="clust4" class="cluster">
<title>cluster_EstablishmentsModule_imports</title>
<polygon fill="none" stroke="#000000" points="16,-78 16,-130 540,-130 540,-78 16,-78"/>
</g>
<g id="clust5" class="cluster">
<title>cluster_EstablishmentsModule_exports</title>
<polygon fill="none" stroke="#000000" points="285,-208 285,-260 471,-260 471,-208 285,-208"/>
</g>
<!-- EstablishmentsComponent -->
<g id="node1" class="node">
<title>EstablishmentsComponent</title>
<polygon fill="#ffffb3" stroke="#000000" points="722.101,-122 555.899,-122 555.899,-86 722.101,-86 722.101,-122"/>
<text text-anchor="middle" x="639" y="-99.8" font-family="Times,serif" font-size="14.00" fill="#000000">EstablishmentsComponent</text>
</g>
<!-- EstablishmentsModule -->
<g id="node2" class="node">
<title>EstablishmentsModule</title>
<polygon fill="#8dd3c7" stroke="#000000" points="450.3188,-187 447.3188,-191 426.3188,-191 423.3188,-187 305.6812,-187 305.6812,-151 450.3188,-151 450.3188,-187"/>
<text text-anchor="middle" x="378" y="-164.8" font-family="Times,serif" font-size="14.00" fill="#000000">EstablishmentsModule</text>
</g>
<!-- EstablishmentsComponent&#45;&gt;EstablishmentsModule -->
<g id="edge1" class="edge">
<title>EstablishmentsComponent&#45;&gt;EstablishmentsModule</title>
<path fill="none" stroke="#000000" d="M639,-122.2843C639,-143.3211 639,-175 639,-175 639,-175 460.3564,-175 460.3564,-175"/>
<polygon fill="#000000" stroke="#000000" points="460.3565,-171.5001 450.3564,-175 460.3564,-178.5001 460.3565,-171.5001"/>
</g>
<!-- EstablishmentsComponent  -->
<g id="node7" class="node">
<title>EstablishmentsComponent </title>
<polygon fill="#fb8072" stroke="#000000" points="462.6015,-252 293.3985,-252 293.3985,-216 462.6015,-216 462.6015,-252"/>
<text text-anchor="middle" x="378" y="-229.8" font-family="Times,serif" font-size="14.00" fill="#000000">EstablishmentsComponent </text>
</g>
<!-- EstablishmentsModule&#45;&gt;EstablishmentsComponent  -->
<g id="edge6" class="edge">
<title>EstablishmentsModule&#45;&gt;EstablishmentsComponent </title>
<path fill="none" stroke="#000000" stroke-dasharray="5,2" d="M378,-187.1061C378,-187.1061 378,-205.991 378,-205.991"/>
<polygon fill="#000000" stroke="#000000" points="374.5001,-205.9909 378,-215.991 381.5001,-205.991 374.5001,-205.9909"/>
</g>
<!-- CardModule -->
<g id="node3" class="node">
<title>CardModule</title>
<polygon fill="#8dd3c7" stroke="#000000" points="532.2619,-122 529.2619,-126 508.2619,-126 505.2619,-122 445.7381,-122 445.7381,-86 532.2619,-86 532.2619,-122"/>
<text text-anchor="middle" x="489" y="-99.8" font-family="Times,serif" font-size="14.00" fill="#000000">CardModule</text>
</g>
<!-- CardModule&#45;&gt;EstablishmentsModule -->
<g id="edge2" class="edge">
<title>CardModule&#45;&gt;EstablishmentsModule</title>
<path fill="none" stroke="#000000" d="M456.4799,-122.0225C456.4799,-139.3734 456.4799,-163 456.4799,-163 456.4799,-163 455.864,-163 455.864,-163"/>
<polygon fill="#000000" stroke="#000000" points="460.3217,-159.5002 450.3217,-163 460.3216,-166.5002 460.3217,-159.5002"/>
</g>
<!-- DetailsModule -->
<g id="node4" class="node">
<title>DetailsModule</title>
<polygon fill="#8dd3c7" stroke="#000000" points="427.7022,-122 424.7022,-126 403.7022,-126 400.7022,-122 328.2978,-122 328.2978,-86 427.7022,-86 427.7022,-122"/>
<text text-anchor="middle" x="378" y="-99.8" font-family="Times,serif" font-size="14.00" fill="#000000">DetailsModule</text>
</g>
<!-- DetailsModule&#45;&gt;EstablishmentsModule -->
<g id="edge3" class="edge">
<title>DetailsModule&#45;&gt;EstablishmentsModule</title>
<path fill="none" stroke="#000000" d="M378,-122.1061C378,-122.1061 378,-140.991 378,-140.991"/>
<polygon fill="#000000" stroke="#000000" points="374.5001,-140.9909 378,-150.991 381.5001,-140.991 374.5001,-140.9909"/>
</g>
<!-- EstablishimentsRouterModule -->
<g id="node5" class="node">
<title>EstablishimentsRouterModule</title>
<polygon fill="#8dd3c7" stroke="#000000" points="310.3117,-122 307.3117,-126 286.3117,-126 283.3117,-122 123.6883,-122 123.6883,-86 310.3117,-86 310.3117,-122"/>
<text text-anchor="middle" x="217" y="-99.8" font-family="Times,serif" font-size="14.00" fill="#000000">EstablishimentsRouterModule</text>
</g>
<!-- EstablishimentsRouterModule&#45;&gt;EstablishmentsModule -->
<g id="edge4" class="edge">
<title>EstablishimentsRouterModule&#45;&gt;EstablishmentsModule</title>
<path fill="none" stroke="#000000" d="M299.5202,-122.2843C299.5202,-143.3211 299.5202,-175 299.5202,-175 299.5202,-175 300.136,-175 300.136,-175"/>
<polygon fill="#000000" stroke="#000000" points="295.6784,-178.5002 305.6783,-175 295.6783,-171.5002 295.6784,-178.5002"/>
</g>
<!-- ListModule -->
<g id="node6" class="node">
<title>ListModule</title>
<polygon fill="#8dd3c7" stroke="#000000" points="105.8289,-122 102.8289,-126 81.8289,-126 78.8289,-122 24.1711,-122 24.1711,-86 105.8289,-86 105.8289,-122"/>
<text text-anchor="middle" x="65" y="-99.8" font-family="Times,serif" font-size="14.00" fill="#000000">ListModule</text>
</g>
<!-- ListModule&#45;&gt;EstablishmentsModule -->
<g id="edge5" class="edge">
<title>ListModule&#45;&gt;EstablishmentsModule</title>
<path fill="none" stroke="#000000" d="M65,-122.0225C65,-139.3734 65,-163 65,-163 65,-163 295.7985,-163 295.7985,-163"/>
<polygon fill="#000000" stroke="#000000" points="295.7985,-166.5001 305.7985,-163 295.7984,-159.5001 295.7985,-166.5001"/>
</g>
</g>
</svg>
