<?xml version="1.0" encoding="UTF-8" standalone="no"?>
<!DOCTYPE svg PUBLIC "-//W3C//DTD SVG 1.1//EN"
 "http://www.w3.org/Graphics/SVG/1.1/DTD/svg11.dtd">
<!-- Generated by graphviz version 2.40.1 (20161225.0304)
 -->
<!-- Title: dependencies Pages: 1 -->
<svg width="886pt" height="284pt"
 viewBox="0.00 0.00 886.00 284.00" xmlns="http://www.w3.org/2000/svg" xmlns:xlink="http://www.w3.org/1999/xlink">
<g id="graph0" class="graph" transform="scale(1 1) rotate(0) translate(4 280)">
<title>dependencies</title>
<polygon fill="#ffffff" stroke="transparent" points="-4,4 -4,-280 882,-280 882,4 -4,4"/>
<text text-anchor="start" x="418.0091" y="-42.4" font-family="sans-serif" font-weight="bold" font-size="14.00" fill="#000000">Legend</text>
<polygon fill="#ffffb3" stroke="transparent" points="205,-10 205,-30 225,-30 225,-10 205,-10"/>
<text text-anchor="start" x="228.629" y="-15.4" font-family="sans-serif" font-size="14.00" fill="#000000"> &#160;Declarations</text>
<polygon fill="#8dd3c7" stroke="transparent" points="318,-10 318,-30 338,-30 338,-10 318,-10"/>
<text text-anchor="start" x="341.7251" y="-15.4" font-family="sans-serif" font-size="14.00" fill="#000000"> &#160;Module</text>
<polygon fill="#80b1d3" stroke="transparent" points="404,-10 404,-30 424,-30 424,-10 404,-10"/>
<text text-anchor="start" x="427.7812" y="-15.4" font-family="sans-serif" font-size="14.00" fill="#000000"> &#160;Bootstrap</text>
<polygon fill="#fdb462" stroke="transparent" points="501,-10 501,-30 521,-30 521,-10 501,-10"/>
<text text-anchor="start" x="524.6732" y="-15.4" font-family="sans-serif" font-size="14.00" fill="#000000"> &#160;Providers</text>
<polygon fill="#fb8072" stroke="transparent" points="597,-10 597,-30 617,-30 617,-10 597,-10"/>
<text text-anchor="start" x="620.7258" y="-15.4" font-family="sans-serif" font-size="14.00" fill="#000000"> &#160;Exports</text>
<g id="clust1" class="cluster">
<title>cluster_EstablishmentsModule</title>
<polygon fill="none" stroke="#000000" stroke-dasharray="1,5" points="8,-70 8,-268 870,-268 870,-70 8,-70"/>
</g>
<g id="clust2" class="cluster">
<title>cluster_EstablishmentsModule_declarations</title>
<polygon fill="none" stroke="#000000" points="680,-78 680,-130 862,-130 862,-78 680,-78"/>
</g>
<g id="clust4" class="cluster">
<title>cluster_EstablishmentsModule_imports</title>
<polygon fill="none" stroke="#000000" points="16,-78 16,-130 672,-130 672,-78 16,-78"/>
</g>
<g id="clust5" class="cluster">
<title>cluster_EstablishmentsModule_exports</title>
<polygon fill="none" stroke="#000000" points="340,-208 340,-260 526,-260 526,-208 340,-208"/>
</g>
<!-- EstablishmentsComponent -->
<g id="node1" class="node">
<title>EstablishmentsComponent</title>
<polygon fill="#ffffb3" stroke="#000000" points="854.101,-122 687.899,-122 687.899,-86 854.101,-86 854.101,-122"/>
<text text-anchor="middle" x="771" y="-99.8" font-family="Times,serif" font-size="14.00" fill="#000000">EstablishmentsComponent</text>
</g>
<!-- EstablishmentsModule -->
<g id="node2" class="node">
<title>EstablishmentsModule</title>
<polygon fill="#8dd3c7" stroke="#000000" points="505.3188,-187 502.3188,-191 481.3188,-191 478.3188,-187 360.6812,-187 360.6812,-151 505.3188,-151 505.3188,-187"/>
<text text-anchor="middle" x="433" y="-164.8" font-family="Times,serif" font-size="14.00" fill="#000000">EstablishmentsModule</text>
</g>
<!-- EstablishmentsComponent&#45;&gt;EstablishmentsModule -->
<g id="edge1" class="edge">
<title>EstablishmentsComponent&#45;&gt;EstablishmentsModule</title>
<path fill="none" stroke="#000000" d="M771,-122.2843C771,-143.3211 771,-175 771,-175 771,-175 515.5095,-175 515.5095,-175"/>
<polygon fill="#000000" stroke="#000000" points="515.5095,-171.5001 505.5095,-175 515.5094,-178.5001 515.5095,-171.5001"/>
</g>
<!-- EstablishmentsComponent  -->
<g id="node8" class="node">
<title>EstablishmentsComponent </title>
<polygon fill="#fb8072" stroke="#000000" points="517.6015,-252 348.3985,-252 348.3985,-216 517.6015,-216 517.6015,-252"/>
<text text-anchor="middle" x="433" y="-229.8" font-family="Times,serif" font-size="14.00" fill="#000000">EstablishmentsComponent </text>
</g>
<!-- EstablishmentsModule&#45;&gt;EstablishmentsComponent  -->
<g id="edge7" class="edge">
<title>EstablishmentsModule&#45;&gt;EstablishmentsComponent </title>
<path fill="none" stroke="#000000" stroke-dasharray="5,2" d="M433,-187.1061C433,-187.1061 433,-205.991 433,-205.991"/>
<polygon fill="#000000" stroke="#000000" points="429.5001,-205.9909 433,-215.991 436.5001,-205.991 429.5001,-205.9909"/>
</g>
<!-- BootstrapModule -->
<g id="node3" class="node">
<title>BootstrapModule</title>
<polygon fill="#8dd3c7" stroke="#000000" points="663.9874,-122 660.9874,-126 639.9874,-126 636.9874,-122 550.0126,-122 550.0126,-86 663.9874,-86 663.9874,-122"/>
<text text-anchor="middle" x="607" y="-99.8" font-family="Times,serif" font-size="14.00" fill="#000000">BootstrapModule</text>
</g>
<!-- BootstrapModule&#45;&gt;EstablishmentsModule -->
<g id="edge2" class="edge">
<title>BootstrapModule&#45;&gt;EstablishmentsModule</title>
<path fill="none" stroke="#000000" d="M607,-122.0225C607,-139.3734 607,-163 607,-163 607,-163 515.28,-163 515.28,-163"/>
<polygon fill="#000000" stroke="#000000" points="515.2801,-159.5001 505.28,-163 515.28,-166.5001 515.2801,-159.5001"/>
</g>
<!-- CardModule -->
<g id="node4" class="node">
<title>CardModule</title>
<polygon fill="#8dd3c7" stroke="#000000" points="532.2619,-122 529.2619,-126 508.2619,-126 505.2619,-122 445.7381,-122 445.7381,-86 532.2619,-86 532.2619,-122"/>
<text text-anchor="middle" x="489" y="-99.8" font-family="Times,serif" font-size="14.00" fill="#000000">CardModule</text>
</g>
<!-- CardModule&#45;&gt;EstablishmentsModule -->
<g id="edge3" class="edge">
<title>CardModule&#45;&gt;EstablishmentsModule</title>
<path fill="none" stroke="#000000" d="M475.3892,-122.1061C475.3892,-122.1061 475.3892,-140.991 475.3892,-140.991"/>
<polygon fill="#000000" stroke="#000000" points="471.8893,-140.9909 475.3892,-150.991 478.8893,-140.991 471.8893,-140.9909"/>
</g>
<!-- DetailsModule -->
<g id="node5" class="node">
<title>DetailsModule</title>
<polygon fill="#8dd3c7" stroke="#000000" points="427.7022,-122 424.7022,-126 403.7022,-126 400.7022,-122 328.2978,-122 328.2978,-86 427.7022,-86 427.7022,-122"/>
<text text-anchor="middle" x="378" y="-99.8" font-family="Times,serif" font-size="14.00" fill="#000000">DetailsModule</text>
</g>
<!-- DetailsModule&#45;&gt;EstablishmentsModule -->
<g id="edge4" class="edge">
<title>DetailsModule&#45;&gt;EstablishmentsModule</title>
<path fill="none" stroke="#000000" d="M394.2209,-122.1061C394.2209,-122.1061 394.2209,-140.991 394.2209,-140.991"/>
<polygon fill="#000000" stroke="#000000" points="390.721,-140.9909 394.2209,-150.991 397.721,-140.991 390.721,-140.9909"/>
</g>
<!-- EstablishimentsRouterModule -->
<g id="node6" class="node">
<title>EstablishimentsRouterModule</title>
<polygon fill="#8dd3c7" stroke="#000000" points="310.3117,-122 307.3117,-126 286.3117,-126 283.3117,-122 123.6883,-122 123.6883,-86 310.3117,-86 310.3117,-122"/>
<text text-anchor="middle" x="217" y="-99.8" font-family="Times,serif" font-size="14.00" fill="#000000">EstablishimentsRouterModule</text>
</g>
<!-- EstablishimentsRouterModule&#45;&gt;EstablishmentsModule -->
<g id="edge5" class="edge">
<title>EstablishimentsRouterModule&#45;&gt;EstablishmentsModule</title>
<path fill="none" stroke="#000000" d="M217,-122.0225C217,-139.3734 217,-163 217,-163 217,-163 350.7748,-163 350.7748,-163"/>
<polygon fill="#000000" stroke="#000000" points="350.7749,-166.5001 360.7748,-163 350.7748,-159.5001 350.7749,-166.5001"/>
</g>
<!-- ListModule -->
<g id="node7" class="node">
<title>ListModule</title>
<polygon fill="#8dd3c7" stroke="#000000" points="105.8289,-122 102.8289,-126 81.8289,-126 78.8289,-122 24.1711,-122 24.1711,-86 105.8289,-86 105.8289,-122"/>
<text text-anchor="middle" x="65" y="-99.8" font-family="Times,serif" font-size="14.00" fill="#000000">ListModule</text>
</g>
<!-- ListModule&#45;&gt;EstablishmentsModule -->
<g id="edge6" class="edge">
<title>ListModule&#45;&gt;EstablishmentsModule</title>
<path fill="none" stroke="#000000" d="M65,-122.2843C65,-143.3211 65,-175 65,-175 65,-175 350.7341,-175 350.7341,-175"/>
<polygon fill="#000000" stroke="#000000" points="350.7342,-178.5001 360.7341,-175 350.7341,-171.5001 350.7342,-178.5001"/>
</g>
</g>
</svg>
