<?xml version="1.0" encoding="UTF-8" standalone="no"?>
<!DOCTYPE svg PUBLIC "-//W3C//DTD SVG 1.1//EN"
 "http://www.w3.org/Graphics/SVG/1.1/DTD/svg11.dtd">
<!-- Generated by graphviz version 2.40.1 (20161225.0304)
 -->
<!-- Title: dependencies Pages: 1 -->
<svg width="594pt" height="284pt"
 viewBox="0.00 0.00 594.00 284.00" xmlns="http://www.w3.org/2000/svg" xmlns:xlink="http://www.w3.org/1999/xlink">
<g id="graph0" class="graph" transform="scale(1 1) rotate(0) translate(4 280)">
<title>dependencies</title>
<polygon fill="#ffffff" stroke="transparent" points="-4,4 -4,-280 590,-280 590,4 -4,4"/>
<text text-anchor="start" x="272.0091" y="-42.4" font-family="sans-serif" font-weight="bold" font-size="14.00" fill="#000000">Legend</text>
<polygon fill="#ffffb3" stroke="transparent" points="59,-10 59,-30 79,-30 79,-10 59,-10"/>
<text text-anchor="start" x="82.629" y="-15.4" font-family="sans-serif" font-size="14.00" fill="#000000"> &#160;Declarations</text>
<polygon fill="#8dd3c7" stroke="transparent" points="172,-10 172,-30 192,-30 192,-10 172,-10"/>
<text text-anchor="start" x="195.7251" y="-15.4" font-family="sans-serif" font-size="14.00" fill="#000000"> &#160;Module</text>
<polygon fill="#80b1d3" stroke="transparent" points="258,-10 258,-30 278,-30 278,-10 258,-10"/>
<text text-anchor="start" x="281.7812" y="-15.4" font-family="sans-serif" font-size="14.00" fill="#000000"> &#160;Bootstrap</text>
<polygon fill="#fdb462" stroke="transparent" points="355,-10 355,-30 375,-30 375,-10 355,-10"/>
<text text-anchor="start" x="378.6732" y="-15.4" font-family="sans-serif" font-size="14.00" fill="#000000"> &#160;Providers</text>
<polygon fill="#fb8072" stroke="transparent" points="451,-10 451,-30 471,-30 471,-10 451,-10"/>
<text text-anchor="start" x="474.7258" y="-15.4" font-family="sans-serif" font-size="14.00" fill="#000000"> &#160;Exports</text>
<g id="clust1" class="cluster">
<title>cluster_DetailsModule</title>
<polygon fill="none" stroke="#000000" stroke-dasharray="1,5" points="8,-70 8,-268 578,-268 578,-70 8,-70"/>
</g>
<g id="clust2" class="cluster">
<title>cluster_DetailsModule_declarations</title>
<polygon fill="none" stroke="#000000" points="434,-78 434,-130 570,-130 570,-78 434,-78"/>
</g>
<g id="clust4" class="cluster">
<title>cluster_DetailsModule_imports</title>
<polygon fill="none" stroke="#000000" points="16,-78 16,-130 426,-130 426,-78 16,-78"/>
</g>
<g id="clust5" class="cluster">
<title>cluster_DetailsModule_exports</title>
<polygon fill="none" stroke="#000000" points="219,-208 219,-260 359,-260 359,-208 219,-208"/>
</g>
<!-- DetailsComponent -->
<g id="node1" class="node">
<title>DetailsComponent</title>
<polygon fill="#ffffb3" stroke="#000000" points="562.4846,-122 441.5154,-122 441.5154,-86 562.4846,-86 562.4846,-122"/>
<text text-anchor="middle" x="502" y="-99.8" font-family="Times,serif" font-size="14.00" fill="#000000">DetailsComponent</text>
</g>
<!-- DetailsModule -->
<g id="node2" class="node">
<title>DetailsModule</title>
<polygon fill="#8dd3c7" stroke="#000000" points="338.7022,-187 335.7022,-191 314.7022,-191 311.7022,-187 239.2978,-187 239.2978,-151 338.7022,-151 338.7022,-187"/>
<text text-anchor="middle" x="289" y="-164.8" font-family="Times,serif" font-size="14.00" fill="#000000">DetailsModule</text>
</g>
<!-- DetailsComponent&#45;&gt;DetailsModule -->
<g id="edge1" class="edge">
<title>DetailsComponent&#45;&gt;DetailsModule</title>
<path fill="none" stroke="#000000" d="M502,-122.1061C502,-141.3391 502,-169 502,-169 502,-169 348.6702,-169 348.6702,-169"/>
<polygon fill="#000000" stroke="#000000" points="348.6703,-165.5001 338.6702,-169 348.6702,-172.5001 348.6703,-165.5001"/>
</g>
<!-- DetailsComponent  -->
<g id="node6" class="node">
<title>DetailsComponent </title>
<polygon fill="#fb8072" stroke="#000000" points="351.4855,-252 226.5145,-252 226.5145,-216 351.4855,-216 351.4855,-252"/>
<text text-anchor="middle" x="289" y="-229.8" font-family="Times,serif" font-size="14.00" fill="#000000">DetailsComponent </text>
</g>
<!-- DetailsModule&#45;&gt;DetailsComponent  -->
<g id="edge5" class="edge">
<title>DetailsModule&#45;&gt;DetailsComponent </title>
<path fill="none" stroke="#000000" stroke-dasharray="5,2" d="M289,-187.1061C289,-187.1061 289,-205.991 289,-205.991"/>
<polygon fill="#000000" stroke="#000000" points="285.5001,-205.9909 289,-215.991 292.5001,-205.991 285.5001,-205.9909"/>
</g>
<!-- BootstrapModule -->
<g id="node3" class="node">
<title>BootstrapModule</title>
<polygon fill="#8dd3c7" stroke="#000000" points="417.9874,-122 414.9874,-126 393.9874,-126 390.9874,-122 304.0126,-122 304.0126,-86 417.9874,-86 417.9874,-122"/>
<text text-anchor="middle" x="361" y="-99.8" font-family="Times,serif" font-size="14.00" fill="#000000">BootstrapModule</text>
</g>
<!-- BootstrapModule&#45;&gt;DetailsModule -->
<g id="edge2" class="edge">
<title>BootstrapModule&#45;&gt;DetailsModule</title>
<path fill="none" stroke="#000000" d="M321.3037,-122.1061C321.3037,-122.1061 321.3037,-140.991 321.3037,-140.991"/>
<polygon fill="#000000" stroke="#000000" points="317.8037,-140.9909 321.3037,-150.991 324.8037,-140.991 317.8037,-140.9909"/>
</g>
<!-- DetailsRouterModule -->
<g id="node4" class="node">
<title>DetailsRouterModule</title>
<polygon fill="#8dd3c7" stroke="#000000" points="285.8047,-122 282.8047,-126 261.8047,-126 258.8047,-122 148.1953,-122 148.1953,-86 285.8047,-86 285.8047,-122"/>
<text text-anchor="middle" x="217" y="-99.8" font-family="Times,serif" font-size="14.00" fill="#000000">DetailsRouterModule</text>
</g>
<!-- DetailsRouterModule&#45;&gt;DetailsModule -->
<g id="edge3" class="edge">
<title>DetailsRouterModule&#45;&gt;DetailsModule</title>
<path fill="none" stroke="#000000" d="M262.5256,-122.1061C262.5256,-122.1061 262.5256,-140.991 262.5256,-140.991"/>
<polygon fill="#000000" stroke="#000000" points="259.0257,-140.9909 262.5256,-150.991 266.0257,-140.991 259.0257,-140.9909"/>
</g>
<!-- MaterialModule -->
<g id="node5" class="node">
<title>MaterialModule</title>
<polygon fill="#8dd3c7" stroke="#000000" points="130.4706,-122 127.4706,-126 106.4706,-126 103.4706,-122 23.5294,-122 23.5294,-86 130.4706,-86 130.4706,-122"/>
<text text-anchor="middle" x="77" y="-99.8" font-family="Times,serif" font-size="14.00" fill="#000000">MaterialModule</text>
</g>
<!-- MaterialModule&#45;&gt;DetailsModule -->
<g id="edge4" class="edge">
<title>MaterialModule&#45;&gt;DetailsModule</title>
<path fill="none" stroke="#000000" d="M77,-122.1061C77,-141.3391 77,-169 77,-169 77,-169 229.2954,-169 229.2954,-169"/>
<polygon fill="#000000" stroke="#000000" points="229.2955,-172.5001 239.2954,-169 229.2954,-165.5001 229.2955,-172.5001"/>
</g>
</g>
</svg>
