<?xml version="1.0" encoding="utf-8"?>
<!-- Generator: Adobe Illustrator 24.0.2, SVG Export Plug-In . SVG Version: 6.00 Build 0)  -->
<svg version="1.1" id="Camada_1" xmlns="http://www.w3.org/2000/svg" xmlns:xlink="http://www.w3.org/1999/xlink" x="0px" y="0px"
	 viewBox="0 0 24 24" style="enable-background:new 0 0 24 24;" xml:space="preserve">
<style type="text/css">
	.st0{fill-rule:evenodd;clip-rule:evenodd;fill:#363840;}
</style>
<path class="st0" d="M18.7,10.8H4.5L6.3,9c0.4-0.5,0.4-1.2,0-1.7c-0.4-0.4-1.1-0.5-1.6,0c0,0,0,0,0,0l-3.8,3.9
	c-0.4,0.5-0.4,1.2,0,1.7l3.8,3.9c0.4,0.4,1.1,0.5,1.6,0c0,0,0,0,0,0c0.4-0.5,0.4-1.2,0-1.7l-1.8-1.9h14.2c0.6,0,1.2-0.5,1.2-1.2v0
	C19.8,11.4,19.3,10.8,18.7,10.8L18.7,10.8z"/>
</svg>
